<svg width="512" height="512" viewBox="0 0 512 512" fill="none" xmlns="http://www.w3.org/2000/svg">
  <rect width="512" height="512" rx="128" fill="url(#gradient)"/>
  <path fill-rule="evenodd" clip-rule="evenodd" d="M144 128C108.654 128 80 156.654 80 192V320C80 355.346 108.654 384 144 384H320C355.346 384 384 355.346 384 320V304H400C417.673 304 432 289.673 432 272V240C432 222.327 417.673 208 400 208H384V192C384 156.654 355.346 128 320 128H144ZM352 192V208H400C400.796 208 401.559 208.099 402.283 208.283C403.736 208.657 405 209.397 406 210.397C407 211.397 407.74 212.661 408.114 214.114C408.298 214.838 408.397 215.601 408.397 216.397V295.603C408.397 296.399 408.298 297.162 408.114 297.886C407.74 299.339 407 300.603 406 301.603C405 302.603 403.736 303.343 402.283 303.717C401.559 303.901 400.796 304 400 304H384V320C384 337.673 369.673 352 352 352H144C126.327 352 112 337.673 112 320V192C112 174.327 126.327 160 144 160H320C337.673 160 352 174.327 352 192Z" fill="white"/>
  <path d="M208 256C208 269.255 197.255 280 184 280C170.745 280 160 269.255 160 256C160 242.745 170.745 232 184 232C197.255 232 208 242.745 208 256Z" fill="white"/>
  <rect x="240" y="232" width="80" height="48" rx="24" fill="white"/>
  <defs>
    <linearGradient id="gradient" x1="0" y1="0" x2="512" y2="512" gradientUnits="userSpaceOnUse">
      <stop offset="0%" stop-color="#6366F1"/>
      <stop offset="100%" stop-color="#8B5CF6"/>
    </linearGradient>
  </defs>
</svg> 